<?xml version="1.0" standalone="no"?><!DOCTYPE svg PUBLIC "-//W3C//DTD SVG 1.1//EN" "http://www.w3.org/Graphics/SVG/1.1/DTD/svg11.dtd"><svg class="icon" height="512" viewBox="0 0 1024 1024" version="1.1" xmlns="http://www.w3.org/2000/svg"><path d="M828.952378 184.408658 827.567097 206.57316 644.543723 206.57316 576.277056 206.57316 576.277056 138.306494 576.277056 46.125216C576.277056 58.3547 586.185602 68.266667 598.441559 68.266667L367.930736 68.266667C380.186692 68.266667 390.095238 58.3547 390.095238 46.125216L390.095238 138.306494 390.095238 206.57316 321.828571 206.57316 138.805195 206.57316 137.419913 184.408658 130.231428 184.408658C134.235196 177.663715 136.533333 169.789373 136.533333 161.380627 136.533333 152.949314 134.229407 145.060285 130.218607 138.306494L202.938398 138.306494 205.553636 180.150301 251.061936 912.108237C254.433355 935.027603 264.742059 945.980955 275.726407 945.980955L690.645888 945.980955C701.024259 945.980955 711.351168 934.858929 715.583321 910.402731L782.850219 922.04329 714.716494 917.784931 760.818661 180.150301 763.433895 138.306494 836.153685 138.306494C832.142889 145.060285 829.838964 152.949314 829.838964 161.380627 829.838964 169.789373 832.1371 177.663715 836.140865 184.408658L828.952378 184.408658ZM875.054544 138.306494C887.778741 138.306494 898.105631 148.633378 898.105631 161.380627 898.105631 174.104824 887.778741 184.408658 875.054544 184.408658L828.952378 184.408658 782.850219 922.04329C774.206061 971.994986 741.565728 1014.247622 690.645888 1014.247622L275.726407 1014.247622C224.806567 1014.247622 190.944526 972.502112 183.522078 922.04329L137.419913 184.408658 91.317749 184.408658C78.593551 184.408658 68.266667 174.104824 68.266667 161.380627 68.266667 148.633378 78.593551 138.306494 91.317749 138.306494L321.828571 138.306494 321.828571 46.125216C321.828571 20.65377 342.482341 0 367.930736 0L598.441559 0C623.889953 0 644.543723 20.65377 644.543723 46.125216L644.543723 138.306494 875.054544 138.306494ZM356.628072 875.941123C369.352269 875.457051 379.264235 864.784404 378.826264 852.037154L344.87202 299.433559C344.410998 286.709361 333.715296 276.797396 320.991099 277.235367 308.266902 277.719439 298.331885 288.415141 298.792907 301.139339L332.747151 853.742933C333.208173 866.46713 343.903874 876.402149 356.628072 875.941123ZM631.604432 875.918077C644.351681 876.402149 655.024331 866.444076 655.485353 853.71988L688.909423 301.116288C689.370444 288.39209 679.435428 277.696388 666.71123 277.212315 653.987033 276.774345 643.314381 286.709361 642.85336 299.433559L609.40624 852.060201C608.945218 864.784404 618.903286 875.457051 631.604432 875.918077ZM494.081675 875.941123C506.805873 875.941123 517.132758 865.637294 517.132758 852.890044L517.132758 299.664069C517.132758 286.916821 506.805873 276.612987 494.081675 276.612987 481.357478 276.612987 471.030593 286.916821 471.030593 299.664069L471.030593 852.890044C471.030593 865.637294 481.357478 875.941123 494.081675 875.941123Z" /></svg>