<svg xmlns="http://www.w3.org/2000/svg" xmlns:xlink="http://www.w3.org/1999/xlink" width="350" height="350" viewBox="0 0 350 350">
  <defs>
    <clipPath id="clip-logoSmall">
      <rect width="350" height="350"/>
    </clipPath>
  </defs>
  <g id="logoSmall" clip-path="url(#clip-logoSmall)">
    <path id="Union_7" data-name="Union 7" d="M1901.284,918.491c-13.443-2.37-22.719-15.46-22.851-30.777a53.85,53.85,0,0,1-39.685.96c-.5,14.9-9.669,27.5-22.83,29.818-15.5,2.732-30.671-9.822-33.884-28.042s6.748-35.207,22.25-37.94q.995-.176,1.987-.268-.479-1.4-.913-2.843A94.993,94.993,0,0,1,1801.5,822q0-2.568.125-5.183c-2.152,1.972-4.19,3.832-6.113,5.445-5.237,4.395-8.995,6.378-12.97,6.848-2.348.279-6.044-.266-9.886-1.459-4.066-1.262-6.651-2.736-7.408-3.639-1.375-1.639-1.907-3.964-1.582-6.91a30.365,30.365,0,0,1,3.667-10.562,71.372,71.372,0,0,1,8.646-12.456,111.3,111.3,0,0,1,27.642-23.194,72.56,72.56,0,0,1,13.044-6.111q.871-1.451,1.783-2.838A45.406,45.406,0,0,1,1806.6,731.5a44.581,44.581,0,0,1,.867-8.768,23.5,23.5,0,1,1,27.966-34.023,54.48,54.48,0,0,1,45.919.745,23.5,23.5,0,1,1,26.49,33.838,44.609,44.609,0,0,1,.758,8.207,45.422,45.422,0,0,1-11.975,30.581q.6.914,1.19,1.855.977.271,2,.6a71.427,71.427,0,0,1,13.768,6.352,111.28,111.28,0,0,1,27.641,23.194,71.331,71.331,0,0,1,8.646,12.456,30.324,30.324,0,0,1,3.667,10.562c.326,2.947-.207,5.271-1.582,6.91-.757.9-3.341,2.377-7.407,3.639-3.843,1.193-7.538,1.738-9.887,1.459-3.976-.47-7.734-2.454-12.971-6.848-2.042-1.714-4.217-3.706-6.518-5.816q-.831-.762-1.707-1.562c.157,2.4.237,4.773.237,7.116a93.7,93.7,0,0,1-3.918,27.393q-.425,1.389-.892,2.743a24.5,24.5,0,0,1,4.026.372c15.5,2.733,25.462,19.72,22.25,37.94-2.917,16.543-15.692,28.416-29.622,28.416A24.52,24.52,0,0,1,1901.284,918.491Z" transform="translate(-1683.601 -623)" fill="#006" stroke="#006" stroke-width="5"/>
  </g>
</svg>
